<?xml version="1.0" encoding="utf-8"?>
<!-- Generator: Adobe Illustrator 21.0.2, SVG Export Plug-In . SVG Version: 6.00 Build 0)  -->
<svg version="1.1" id="Calque_1" xmlns="http://www.w3.org/2000/svg" xmlns:xlink="http://www.w3.org/1999/xlink" x="0px" y="0px"
	 viewBox="0 0 305 35" style="enable-background:new 0 0 305 35;" xml:space="preserve">
<style type="text/css">
	.st0{enable-background:new    ;}
	.st1{fill:#FFFFFF;}
	.st2{fill:#6D6D6D;}
</style>
<desc>Created with Sketch.</desc>
<g id="Page-1">
	<g id="LOGO-2" transform="translate(-144.000000, -130.000000)">
		<g id="MonSiteFR-_x2B_-Type-something-_x2B_-Rectangle-9-Copy" transform="translate(142.000000, 120.000000)">
			<g class="st0">
				<path class="st1" d="M38.4,42h-4l-3.3-25.5L22.8,42h-4.3l-8.4-25.5L6.9,42h-4l4-31.1h5.2l8.6,25.1l8.6-25.1h5.2L38.4,42z"/>
				<path class="st1" d="M46.1,22.1C48,20,50.6,19,54.1,19s6.1,1,7.9,3.1c1.9,2.1,2.8,4.9,2.8,8.6s-0.9,6.5-2.8,8.6
					c-1.9,2.1-4.5,3.1-7.9,3.1s-6.1-1-7.9-3.1c-1.9-2.1-2.8-4.9-2.8-8.6S44.3,24.1,46.1,22.1z M49.2,36.9c1.1,1.4,2.7,2.2,4.8,2.2
					c2.1,0,3.7-0.7,4.8-2.2c1.1-1.4,1.7-3.5,1.7-6.3s-0.6-4.8-1.7-6.3c-1.1-1.4-2.7-2.1-4.8-2.1c-2.1,0-3.7,0.7-4.8,2.1
					c-1.1,1.4-1.7,3.5-1.7,6.3S48.1,35.5,49.2,36.9z"/>
				<path class="st1" d="M87.7,21.1c1.3,1.4,1.9,3.4,1.9,6v15h-4.1V27.4c0-1.8-0.3-3.1-1-3.9c-0.7-0.8-1.8-1.2-3.3-1.2
					c-1.4,0-2.6,0.3-3.8,0.9c-1.1,0.6-2.1,1.5-2.8,2.6V42h-4.1V19.4h3.4l0.5,3.2c2-2.4,4.7-3.6,7.9-3.6C84.6,19,86.5,19.7,87.7,21.1
					z"/>
				<path class="st1" d="M98.1,37.9c1,0.4,2,0.7,3.1,1c1.1,0.2,2.1,0.4,3.2,0.4c2,0,3.5-0.5,4.7-1.4c1.1-1,1.7-2.3,1.7-3.9
					c0-1.1-0.3-2.1-0.9-2.8s-1.3-1.2-2.2-1.6c-0.9-0.4-2.1-0.8-3.5-1.2c-1.8-0.6-3.3-1.1-4.4-1.6c-1.1-0.5-2-1.3-2.8-2.5
					c-0.8-1.1-1.2-2.6-1.2-4.5c0-2.6,0.9-4.7,2.7-6.3c1.8-1.6,4.4-2.4,7.9-2.4c2.4,0,5,0.6,7.7,1.7l-1,3.4c-2.5-1-4.7-1.5-6.6-1.5
					c-2,0-3.6,0.4-4.7,1.3c-1.1,0.8-1.7,2-1.6,3.4c0,1.1,0.3,2,0.9,2.7c0.6,0.7,1.3,1.2,2.1,1.6s2,0.8,3.4,1.2
					c1.9,0.6,3.4,1.2,4.5,1.8c1.1,0.6,2.1,1.5,2.9,2.7c0.8,1.2,1.2,2.8,1.2,4.8c0,2.9-1,5.1-2.9,6.6c-1.9,1.5-4.5,2.3-7.7,2.3
					c-1.8,0-3.5-0.2-4.9-0.6c-1.4-0.4-2.9-0.9-4.6-1.6l1.2-3.5C96.5,37.2,97.1,37.5,98.1,37.9z"/>
				<path class="st1" d="M120.9,10.9h4v3.8h-4V10.9z M120.9,19.4h4V42h-4V19.4z"/>
				<path class="st1" d="M130,22.6v-3.2h4.3l0.7-6.6h3.1v6.6h6.9v3.2h-6.9V35c0,2.6,1.1,3.9,3.3,3.9c0.9,0,2-0.2,3.3-0.6l0.7,2.9
					c-1.6,0.7-3.2,1-4.7,1c-2,0-3.6-0.6-4.8-1.8c-1.2-1.2-1.9-2.9-1.9-5.2V22.6H130z"/>
				<path class="st1" d="M151.3,22.1c1.8-2,4.5-3.1,7.8-3.1c3.3,0,5.7,1,7.2,3c1.5,2,2.2,4.8,2.2,8.6v0.7h-15.8
					c0.1,2.6,0.7,4.5,1.8,5.9s2.8,2,4.9,2c1.2,0,2.3-0.1,3.4-0.4c1.1-0.3,2.3-0.7,3.6-1.3l1.2,2.8c-1.5,0.8-2.9,1.3-4.3,1.6
					s-2.7,0.5-4.1,0.5c-3.4,0-6-1-7.9-3.1c-1.9-2.1-2.8-4.9-2.8-8.6C148.5,27,149.4,24.1,151.3,22.1z M155,23.7c-1,1-1.7,2.5-2,4.4
					h11.3c-0.2-2-0.7-3.5-1.5-4.5c-0.8-1-2-1.4-3.5-1.4C157.4,22.2,156,22.7,155,23.7z"/>
				<path class="st1" d="M173.9,10.9h18.5v3.6h-14.3v9.5h12.8v3.6h-12.8V42h-4.2V10.9z"/>
				<path class="st1" d="M214,42l-7.5-12.8h-0.1h-5V42h-4.2V10.9h9.2c3.5,0,6.2,0.8,8,2.4c1.8,1.6,2.7,3.8,2.7,6.8
					c0,2.2-0.5,4-1.6,5.5c-1.1,1.5-2.6,2.5-4.7,3.1l7.9,13.4H214z M201.4,25.7h5c2,0,3.6-0.5,4.7-1.5c1.1-1,1.6-2.4,1.6-4.2
					s-0.5-3.2-1.6-4.2s-2.6-1.4-4.7-1.4h-5V25.7z"/>
			</g>
			<g class="st0">
				<path class="st1" d="M247.2,27.6c1.4-1.5,3.4-2.3,6-2.3c2.6,0,4.5,0.9,5.8,2.8l-2.1,1.5c-0.5-0.6-1.1-1.1-1.7-1.4
					c-0.6-0.3-1.3-0.5-2.1-0.5c-1.5,0-2.8,0.5-3.6,1.6c-0.9,1.1-1.3,2.6-1.3,4.7c0,2.1,0.4,3.6,1.3,4.7c0.9,1.1,2.1,1.6,3.8,1.6
					c0.9,0,1.7-0.1,2.3-0.3c0.6-0.2,1.3-0.5,2.1-0.8l0.9,2.1c-1.6,0.9-3.5,1.4-5.5,1.4c-2.6,0-4.6-0.8-6-2.3c-1.4-1.5-2-3.6-2-6.3
					S245.8,29.1,247.2,27.6z"/>
				<path class="st1" d="M263.4,27.5c1.4-1.5,3.4-2.3,5.9-2.3s4.5,0.8,5.9,2.3s2.1,3.7,2.1,6.4c0,2.7-0.7,4.9-2.1,6.4
					c-1.4,1.5-3.4,2.3-5.9,2.3s-4.5-0.8-5.9-2.3c-1.4-1.5-2.1-3.7-2.1-6.4C261.3,31.2,262,29.1,263.4,27.5z M265.7,38.6
					c0.8,1.1,2,1.6,3.6,1.6c1.5,0,2.7-0.5,3.6-1.6c0.8-1.1,1.3-2.6,1.3-4.7s-0.4-3.6-1.3-4.7c-0.8-1.1-2-1.6-3.6-1.6
					c-1.5,0-2.7,0.5-3.6,1.6c-0.8,1.1-1.3,2.6-1.3,4.7S264.9,37.5,265.7,38.6z"/>
				<path class="st1" d="M305.2,26.8c1,1,1.4,2.5,1.4,4.5v11.1h-3.1V31.5c0-1.3-0.3-2.3-0.8-2.9s-1.3-0.9-2.5-0.9
					c-1,0-1.9,0.2-2.7,0.7c-0.8,0.5-1.5,1.1-2,1.9c0,0.2,0,0.5,0,0.9v11.1h-3.1V31.5c0-1.3-0.3-2.3-0.8-2.9
					c-0.5-0.6-1.3-0.9-2.5-0.9c-1,0-1.9,0.2-2.7,0.7s-1.5,1.1-2,1.9v12.1h-3.1V25.6h2.5l0.3,2.3c1.5-1.7,3.3-2.6,5.6-2.6
					c2.6,0,4.4,1,5.2,2.9c1.5-2,3.4-2.9,5.8-2.9C302.8,25.3,304.2,25.8,305.2,26.8z"/>
			</g>
			<path id="Rectangle-9-Copy" class="st2" d="M233.1,44.9c-2.7,0-6.5-3.8-6.5-6.5c0-2.7,2.2-4.8,4.8-4.8c2.7,0,4.8,2.2,4.8,4.8
				c0,2.7-2.2,4.8-4.8,4.8L233.1,44.9z"/>
		</g>
	</g>
</g>
</svg>
